#!OML:ASF F:\VICON\USERDATA\INSTALL\rory3\rory3.ASF
:FULLY-SPECIFIED
:DEGREES
45
root -0.40488764213913264 17.231445020623767 1.1872223991144892 4.546632073472075 1.2979721987782629 0.3568130886306782
lfemur -2.0012330685107695 0.2131733550284678 -26.4569699977648
ltibia 39.672718491957056
lfoot -6.682408134649159 -3.227271525494967
ltoes -6.236334680951935
rfemur -41.683114388948006 -3.9071986227704167 22.443852116201015
rtibia 85.22120013758848
rfoot 10.066896359524614 -7.305685584549533
rtoes 20.001094218332124
lowerback 16.082122490093727 -0.08116418450555007 -3.2190228543858512
upperback -0.4977703107797249 -0.6192158963510981 0.412519050480292
thorax -9.841377525972272 -0.14551994190596096 2.5392897620535937
lowerneck -22.567203863320476 -3.46822260727482 -1.8335034832128578
upperneck 12.385334582506863 -4.872894895185371 3.8096826629435245
head 7.645098773592662 -1.9428570032404426 1.0085149991490274
lclavicle 7.933867042853219e-17 -3.5106937242501016e-16
lhumerus -37.6766554092074 -18.222448931785202 95.95410837205723
lradius 107.09724088337768
lwrist 33.76537034408252
lhand -25.925818589818956 2.3953611791258855
lfingers 7.12502
lthumb 1.2588311608405507 31.80439549260456
rclavicle 7.933867067489881e-17 -3.5106937223902565e-16
rhumerus -52.72738349449164 8.889180693779718 -101.12707756029867
rradius 105.94957754207938
rwrist -9.412788359669765
rhand -16.03153928571842 38.41229355484836
rfingers 7.12502
rthumb 9.665921302379845 8.643534538149865
46
root -0.39853468796639646 17.28202077112073 1.6553329737295037 4.7501127860194785 0.949695929476972 0.11225651820897431
lfemur -0.2597560565263901 0.4476669394604057 -26.108699565343887
ltibia 38.79229728648654
lfoot -6.587697727398971 -3.822991656521472
ltoes -7.0054554002663245
rfemur -43.62693675427785 -3.5290230390210136 23.011979103708487
rtibia 83.25408034020568
rfoot 10.362259732745658 -7.020671437772521
rtoes 19.63491058581055
lowerback 15.897298930148475 -0.2459396323254942 -3.080269846746139
upperback -0.569230359391441 -0.7871702094112252 0.6793809007526892
thorax -9.886361986250115 -0.23210701711092163 2.695807318295544
lowerneck -22.557896396970794 -3.3211347121298984 -1.90001097407914
upperneck 12.42647854432612 -4.6180813012162325 3.7104431278045684
head 7.687352846302348 -1.8202576592923594 0.9761765585431985
lclavicle 7.933867042750942e-17 -3.510693724248707e-16
lhumerus -37.37672394399081 -17.535340745659767 95.74744657495036
lradius 108.5231206817239
lwrist 34.13478263337118
lhand -25.88750590695337 2.5175021792955015
lfingers 7.12502
lthumb 1.141789505952094 31.837670606102662
rclavicle 7.933867067571652e-17 -3.5106937223741997e-16
rhumerus -53.4205402657715 8.800538658586644 -100.99902997290711
rradius 105.93491316394673
rwrist -9.354674706365113
rhand -16.092228517446504 38.40503873288334
rfingers 7.12502
rthumb 9.662656513807615 8.73005736641137
47
root -0.3977263305953074 17.33250290983258 2.093395142365611 4.952052905313769 0.5107454181753015 -0.12819428797659826
lfemur 1.455365052642648 0.6810039961558516 -25.74994956847449
ltibia 37.93608855057979
lfoot -6.334875359218069 -4.605064321840398
ltoes -5.801508631911971
rfemur -45.26366192005996 -2.981716060962472 23.57389554039342
rtibia 80.92074221322551
rfoot 10.625182063051291 -6.982350899194232
rtoes 21.251991894594738
lowerback 15.715074042012997 -0.3694515389967056 -2.9592454083195237
upperback -0.6444280055027873 -0.9045556104223393 0.9609722971131631
thorax -9.928253710752175 -0.2917938748236597 2.845552122246004
lowerneck -22.51959723514665 -3.167439826335448 -1.9355157000890058
upperneck 12.507415159386186 -4.3601577675248855 3.5937858503247844
head 7.729807975700288 -1.7030721720185682 0.9334355293837149
lclavicle 7.93386704277113e-17 -3.5106937242380375e-16
lhumerus -37.17666528954006 -16.972915150770508 95.49531252904656
lradius 109.83193055891779
lwrist 34.49873496834806
lhand -25.899327962184202 2.3843713100447874
lfingers 7.12502
lthumb 1.2054150738320142 32.016474356485965
rclavicle 7.933867066961758e-17 -3.510693722411479e-16
rhumerus -54.108128487115486 8.765664870779181 -100.85214125750518
rradius 106.03361930328644
rwrist -9.272419270010566
rhand -16.151461215491704 38.46140195473236
rfingers 7.12502
rthumb 9.611460762408882 8.803830241087109
48
root -0.3969323700610073 17.386567803372355 2.5678602165674462 5.132293801372894 0.040294302350751376 -0.34292996810406207
lfemur 3.175245464213198 0.8753253196789825 -25.40034526378933
ltibia 37.088988092749844
lfoot -6.2077399554223325 -5.410231354407228
ltoes -3.8536597749707795
rfemur -46.59928473603169 -2.3554070792721493 24.058428782632195
rtibia 78.24533269293515
rfoot 11.058656261774331 -7.009269288660491
rtoes 21.403056373206073
lowerback 15.53272631201654 -0.46704800429248816 -2.8591158391843554
upperback -0.7517627121667739 -0.997516655054359 1.2300786105525185
thorax -9.978239861182736 -0.3375699835600594 2.9964498952589453
lowerneck -22.352016924809067 -3.025191196750219 -1.928430098922374
upperneck 12.620201704757559 -4.135416525545331 3.463835465905774
head 7.756170405085947 -1.6128268363943503 0.8878166594774752
lclavicle 7.933867042654514e-17 -3.510693724237824e-16
lhumerus -37.15510432240625 -16.34498703912799 95.30169197213797
lradius 111.04745867498174
lwrist 34.9014414160437
lhand -25.821866940864698 2.3796268274602594
lfingers 7.12502
lthumb 1.2470322251985213 32.07386349922368
rclavicle 7.933867066307716e-17 -3.5106937224522634e-16
rhumerus -54.79035525525852 8.763578088645497 -100.69221466451374
rradius 106.2194846849788
rwrist -9.365976805616246
rhand -16.13823172487982 38.64334216124445
rfingers 7.12502
rthumb 9.638737944423639 8.984141989593175
49
root -0.3983543814310622 17.449432564417123 3.0629962857544957 5.314374967420729 -0.43006180722511456 -0.5300782780688595
lfemur 4.86007971201899 0.9955224235204585 -25.104154058643037
ltibia 36.28161007916482
lfoot -5.963263193085013 -5.918367175935377
ltoes -2.6839743921599553
rfemur -47.62930015328506 -1.6836717900190747 24.487093438640887
rtibia 75.26529932573118
rfoot 11.409882898621422 -7.384123877658684
rtoes 21.66544211934104
lowerback 15.353198362516816 -0.5420794237271344 -2.7640296710134
upperback -0.9069418088805108 -1.048567024198819 1.508802695876839
thorax -10.07898075892279 -0.36759690504087916 3.141989725596403
lowerneck -22.094590222114157 -2.8960975496899675 -1.9743144395064574
upperneck 12.772712467481538 -3.915871250167852 3.336797004212306
head 7.806111079771333 -1.5143700387513666 0.8477524724238481
lclavicle 7.933867042778597e-17 -3.5106937242186724e-16
lhumerus -37.280057974655364 -15.578777137356166 95.18407165253738
lradius 112.17096972335244
lwrist 35.34500042497125
lhand -25.56217859017485 2.5407360181884537
lfingers 7.12502
lthumb 1.2996263771403727 32.049729030688866
rclavicle 7.933867065877717e-17 -3.510693722475402e-16
rhumerus -55.40409196943663 8.802454497321175 -100.50822622355355
rradius 106.45535692793666
rwrist -9.584513625009736
rhand -16.05077692385206 38.940900946510624
rfingers 7.12502
rthumb 9.72967811963848 9.259399380292107
50
root -0.39386738700233903 17.515857820767337 3.738460433987229 5.463434090027468 -0.8378143807203502 -0.643796420757013
lfemur 6.5147320186823485 1.005080265353627 -24.929661412222302
ltibia 35.53628637203906
lfoot -5.811438525794935 -6.131153900856532
ltoes -3.648856919267767
rfemur -48.35745984579363 -1.0789274363991406 24.782548666830557
rtibia 72.04311512454967
rfoot 11.761882388851301 -7.756022777984486
rtoes 21.225121648957114
lowerback 15.174991918925858 -0.6145060626515716 -2.6953758984027707
upperback -1.0198493389633958 -1.1208106159302098 1.743301026491284
thorax -10.114618348476235 -0.4062890316908434 3.2898718543188528
lowerneck -21.96220953837991 -2.7783286293178024 -2.023395363393979
upperneck 13.037814872764402 -3.714529851734503 3.211315110050255
head 7.900858655775736 -1.4234307785702045 0.8023263694649065
lclavicle 7.933867042796193e-17 -3.510693724207246e-16
lhumerus -37.404114318906785 -14.968069872576343 94.98239109193683
lradius 113.1150268237161
lwrist 35.68723560308868
lhand -25.391802214446113 2.643347183906723
lfingers 7.12502
lthumb 1.3705834101932242 31.955259034824163
rclavicle 7.933867065114947e-17 -3.510693722523877e-16
rhumerus -55.95296562695936 8.83169476071545 -100.27219832830039
rradius 106.71479541692071
rwrist -10.008160074107971
rhand -15.917829519728196 39.297072106621286
rfingers 7.12502
rthumb 9.842747042396512 9.577206369596803
51
root -0.38557983297283865 17.596129773924897 4.430985962044905 5.60538271510302 -1.167168383501754 -0.7511196763270469
lfemur 8.088306327815367 0.8807782324325033 -24.78967931756202
ltibia 34.88448420343085
lfoot -5.204115312406124 -5.991484304762713
ltoes -4.690851075585007
rfemur -48.763424225783595 -0.5717509611173726 25.07416648598832
rtibia 68.52335592640456
rfoot 12.076996862150036 -8.330773013182206
rtoes 21.124464647758494
lowerback 15.004240481600377 -0.686470963594204 -2.59715739184707
upperback -1.1457225408500384 -1.1903116493225208 1.9346917359617413
thorax -10.124249243669166 -0.4415933600499502 3.4430950789393053
lowerneck -21.761824586372793 -2.6718391130063153 -2.0583292543769005
upperneck 13.358004670858598 -3.536300345451556 3.0911516639643857
head 7.997786186533677 -1.3501984495565282 0.7601227774537445
lclavicle 7.933867043028804e-17 -3.510693724180481e-16
lhumerus -37.674136770285926 -14.457909919501166 94.78033699333974
lradius 113.93892309904477
lwrist 35.83439521819832
lhand -25.203640201462793 2.583329947988263
lfingers 7.12502
lthumb 1.5303052799647345 31.923895626090523
rclavicle 7.933867064166398e-17 -3.5106937225878573e-16
rhumerus -56.46317017808055 8.823021458456946 -99.99612706167702
rradius 106.98238623918299
rwrist -10.522089911625002
rhand -15.839232358974597 39.59378946019695
rfingers 7.12502
rthumb 9.948759016375504 9.893894724817576
